[img]http://imgcrave.com/u/Y50A7.png[/img]


The.Cabin.in.the.Woods.TS.XViD.AC3-ADTRG

Five friends go for a break at a remote cabin in the woods, where they get more than they bargained for. Together, they must discover the truth behind the cabin in the woods.
 
http://www.imdb.com/title/tt1259521/

Source - Cam  Lumix ,  cheersto a friend for giving to me Thanks
Source -   Line        Dragon Exclusive, cheers Bro as always awesome work Bro


Complete name                            : The.Cabin.in.the.Woods.TS.XViD.AC3-ADTRG.avi
Format                                   : AVI
Format/Info                              : Audio Video Interleave
File size                                : 1.20 GiB
Duration                                 : 1h 29mn
Overall bit rate                         : 1 920 Kbps

Video
ID                                       : 0
Format                                   : MPEG-4 Visual
Codec ID                                 : XVID
Duration                                 : 1h 29mn
Bit rate                                 : 1 716 Kbps
Width                                    : 640 pixels
Height                                   : 264 pixels
Display aspect ratio                     : 2.40:1
Frame rate                               : 29.640 fps
Stream size                              : 1.07 GiB (89%)

Audio
ID                                       : 1
Format                                   : AC-3
Duration                                 : 1h 29mn
Bit rate                                 : 192 Kbps
Channel(s)                               : 2 channels
Channel positions                        : Front: L R
Stream size                              : 122 MiB (10%)
 
http://imgcrave.com/u/tUpzY.jpg 
http://imgcrave.com/u/pWT89.jpg 
http://imgcrave.com/u/2qGW6.jpg 
http://imgcrave.com/u/Fepn.jpg 
http://imgcrave.com/u/bS8FP.jpg 
http://imgcrave.com/u/k9A2I.jpg

